<svg width="157" height="45" viewBox="0 0 157 45" fill="none" xmlns="http://www.w3.org/2000/svg">
<g clip-path="url(#clip0)">
<path d="M43.5657 24.3112C46.3128 24.3112 48.5738 26.6207 48.5738 29.4408C48.5495 32.3096 46.3128 34.5948 43.5414 34.5948C40.7942 34.5948 38.5332 32.2853 38.5332 29.4652C38.5576 26.6208 40.7942 24.3112 43.5657 24.3112ZM58.4441 19.3274C58.4441 16.5316 56.2804 14.2464 53.6062 14.2464C52.2934 14.2464 50.6402 14.9028 49.7164 15.8752C47.6986 14.8541 45.8266 14.222 43.5657 14.222C35.3971 14.222 28.7358 21.0535 28.7358 29.4408C28.7358 37.9741 35.3971 44.9271 43.5657 44.9271C45.8995 44.9271 48.1362 44.1248 49.7407 43.3468C50.6402 44.3436 52.0016 44.9271 53.4846 44.9271C55.9401 44.9271 57.9093 43.3955 58.3226 41.1832C58.3712 41.0859 58.4198 40.94 58.4198 40.7942V19.5462C58.4198 19.5705 58.4198 19.5705 58.4198 19.5948C58.4198 19.5219 58.4198 19.4246 58.4198 19.376C58.4441 19.376 58.4441 19.3517 58.4441 19.3274Z" fill="#014A2A"/>
<path d="M14.7569 20.3728C12.3015 20.3728 10.1864 18.5494 9.82172 16.1183V14.5381C10.1864 12.107 12.3015 10.2836 14.7569 10.2836C17.5284 10.2836 19.765 12.5446 19.765 15.316C19.765 18.1118 17.5284 20.3728 14.7569 20.3728ZM8.60616 29.0762C10.235 30 13.0308 30.2674 14.7569 30.2674C22.9254 30.2674 29.5867 23.5575 29.5867 15.3404C29.5867 7.09886 22.9498 0.388971 14.7569 0.388971C12.5932 0.388971 10.5267 0.850884 8.60616 1.7504C7.68233 0.680705 6.36953 0.0486145 4.93517 0.0486145C2.21232 0.0486145 0 2.26093 0 5.0081C0 5.03241 0 5.08103 0 5.12965C0 5.2269 0 5.37276 0 5.51863C0 5.49432 0 5.4457 0 5.42139C0.0243112 10.9643 0 39.8217 0 39.9919C0 42.6904 1.79903 44.9271 4.47326 44.9271C7.1718 44.9271 8.60616 42.6904 8.60616 39.9676C8.60616 39.7974 8.58185 39.2626 8.58185 38.8493" fill="#014A2A"/>
<path d="M89.6354 29.3922C89.6354 20.9806 84.4571 14.3922 76.1427 14.3922C73.8574 14.3922 71.5965 14.9514 69.5543 15.9968C68.6548 15.1216 67.4879 14.6353 66.248 14.6353C63.5495 14.6353 61.3372 16.8963 61.3372 19.7164C61.3372 19.7407 61.3372 19.7893 61.3372 19.8379C61.3372 19.9352 61.3372 20.081 61.3372 20.2512C61.3372 20.2269 61.3372 20.1783 61.3372 20.154V40.2836C61.3372 40.3079 61.3372 40.3323 61.3372 40.3566C61.5073 42.9336 62.9174 44.9757 65.4944 44.9757C68.2172 44.9757 69.9919 42.7877 69.9919 39.9919V39.8703C69.9919 39.7974 69.9919 39.7002 69.9919 39.5786C69.9919 39.6029 69.9919 39.6272 69.9919 39.6515V28.0308C70.0892 25.3079 72.8607 23.1443 75.5835 23.1443C78.2577 23.1443 81.0778 25.3566 81.1994 28.0794C81.1994 28.0551 81.1994 40.2593 81.1994 40.2593C81.1994 40.2836 81.1994 40.308 81.1994 40.3323C81.3696 42.9092 82.8769 44.9514 85.4539 44.9514C88.1767 44.9514 89.6597 42.7634 89.6597 39.9676C89.6597 39.919 89.6597 39.8703 89.6597 39.8217C89.6597 39.7002 89.6597 39.5543 89.6597 39.4084L89.6354 29.3922Z" fill="#014A2A"/>
<path d="M106.799 24.6272C109.352 24.6272 111.54 26.6208 111.783 29.1734V30.1702C111.515 32.7715 109.376 34.7164 106.799 34.7164C104.028 34.7164 101.791 32.4554 101.791 29.684C101.791 26.8882 104.052 24.6272 106.799 24.6272ZM121.58 40.1378V5.08105C121.58 2.33388 119.951 0.0243225 117.253 0.0243225C114.554 0.0243225 113.023 2.33388 113.023 5.08105C113.023 5.22692 113.023 5.37278 113.047 5.49434V15.8266C111.442 15.2431 108.525 14.7569 106.799 14.7569C98.6305 14.7569 91.9692 21.4425 91.9692 29.684C91.9692 37.9741 98.7521 44.9757 106.799 44.9757C108.938 44.9757 111.078 44.4652 113.023 43.517C113.922 44.4409 115.259 44.9757 116.694 44.9757C119.514 44.9757 121.556 43.0551 121.556 40.4052C121.556 40.3809 121.556 40.3566 121.556 40.3566C121.58 40.2593 121.58 40.1864 121.58 40.1378Z" fill="#014A2A"/>
<path d="M139.036 34.8379C136.41 34.8379 134.295 32.6742 134.295 30C134.295 27.3258 136.434 25.1621 139.06 25.1621C141.686 25.1621 143.801 27.3258 143.801 30C143.776 32.6742 141.661 34.8379 139.036 34.8379ZM145.989 16.6045C143.776 15.389 141.297 14.7326 138.793 14.7326C130.575 14.7326 123.914 21.4425 123.914 29.7326C123.914 33.7439 125.47 37.5608 128.266 40.4538C131.086 43.3711 134.83 44.9757 138.793 44.9757H146.062C150.219 44.9757 153.501 41.5721 153.501 37.2447V29.3193C153.525 28.7115 153.671 21.0535 145.989 16.6045Z" fill="#FE2728"/>
<path d="M155.98 7.73097L155.64 6.78284L154.813 7.31768C153.476 8.2172 152.091 8.60618 149.976 9.18964C148.979 9.48138 147.836 9.79742 146.45 10.235C141.637 11.7666 141.248 17.1151 141.224 17.3582L141.199 17.9903L141.783 18.1848C144.262 18.9627 150.437 18.671 153.914 15.3161C157.439 11.8882 156.053 7.87684 155.98 7.73097Z" fill="#70BC1F"/>
<path d="M142.147 17.4068C142.147 17.4068 144.724 13.8331 148.566 12.9335C152.869 11.9125 155.13 8.99513 155.178 8.14424C155.178 8.14424 154.911 11.1102 149.003 13.1037C147.982 13.4198 145.357 13.8574 142.147 17.4068Z" fill="white"/>
</g>
<defs>
<clipPath id="clip0">
<rect width="156.297" height="45" fill="white"/>
</clipPath>
</defs>
</svg>
